<?xml version="1.0" encoding="UTF-8"?>
<svg id="Layer_1" xmlns="http://www.w3.org/2000/svg" version="1.1" viewBox="0 0 1066 225" fill="#e6dfd0">
  <!-- Generator: Adobe Illustrator 30.2.1, SVG Export Plug-In . SVG Version: 2.1.1 Build 1)  -->
  <defs>
    <style>
      .st0 {
        fill: none;
      }
    </style>
  </defs>
  <path class="st0" d="M0,0h1066v225H0V0ZM942.35,193.07c3.44-1.53,5.95-3.79,8.37-6.3,10.57-10.94,2.27-7.38,10.95-14.92l1-8.54c.21-1.79-2.69-2.77-4.44-3.53l-32.78-14.26-16.47-6.79c-6-2.48-11.48-5.7-17.29-8.83,5.03-.87,8.26,2.04,12.36,3.18,6.95,1.94,13.16,5.03,19.76,7.91,11.07,4.85,21.83,8.82,32.46,14.78,1.54.87,4.44,1.22,5.69.16.05-14.4-5.43-28.84-17.02-37.98-5.12-4.04-10.88-7.73-16.68-11.27l-37.87-23.1c-5.33-3.25-9.39-9.09-7.98-15.4,1.7-7.6,9.81-10.3,16.64-8.22,14.33,4.36,9.05,23.61,12.79,23.6h3.44s20.67-.4,20.67-.4l21.08-.63c-1.06-22.18-8.19-42.63-31.64-49.08-14.01-3.85-28.47-5.01-42.91-4-24.85,1.74-49.37,15.63-49.54,43.58-.11,17.77,11.29,31.59,26.15,40.15l15.69,9.04c4.86,2.8,10.02,5.21,14.59,8.27,10.66,7.14,16.85,8.15,23.05,14.96,3.43,3.77,3.7,11.27.07,15.05-3.12,3.25-9.09,4.1-13.42,3.46l-13.56-2.01-.73-18.61c-3.95-1.09-8.03-1.98-12.33-2.86l-29.32-5.95c-2.54-.51-5.88-.52-8.6.09-.41,4.4-.32,8.58-.31,12.63,0,5.32,2.47,7.61,8.27,10.16l-5.35.95,1.92,1.85c.19.19-.87.13-1.13.17l-2.54.42c7.35,14.3,9.09,17.65,24.2,24.77,7.27,3.43,14.09,5.88,22.04,7.07,1.95.29,4.95,1.4,6.71,1.57,7.87.78,15.29,1.35,22.91,2.61,8.01,1.33,15.18,2.31,23.81,2.48l-1.65-2.28,8.95-3.97ZM695.29,110.02c.08,1.66-.61,4.79-1.35,5.66l-5.86-1.51c4.58,1.08,6.75,8.54,6.92,10.62l1.07,12.82c1.16,13.93,7.79,24,18.86,31.7,9.35,6.5,18.4,9.81,29.95,11.38,5.31.72,10.99,2.69,16.72,2.96,12.07.58,24.14,1.34,36.18-1.12,7.81-1.59,23.54-11.65,25.5-21.07,1.84-8.82,1.19-17.11,1.33-25.9l.26-16.75-.06-18.24-2.06-66.74c-17.37-1.36-32.35-1.32-48.91-.96-1.14.02-3.13,2.15-3.56,3.25l1.29,23.51,1.78,55.27c.29,8.94.83,17.1,1.56,26.13.37,4.49.64,11.41-3.75,13.97-3.46,2.01-21.66,3.86-25.21-10.91l-4.19-17.5-8.87-2.89c.82-.8,1.58-1.66,2.21-1.39l2.57,1.12c2.16.94,5.82,2.07,7.11-.84.85-1.92-1.48-4.78-3.45-5.82-1.37-.72-3.72-.12-6.56.53l-.87-3.18-18.17-4.47-16.71-3.59c-.92-.2-3.94-.49-3.9.41l.18,3.54ZM742.41,112.94c.84-2.2,1.93-5.47,1.84-7.46-.81-16.74-.42-32.73-.41-49.44v-22.76s-20.17-.12-20.17-.12c-10.34-.06-19.88-.25-30.74.42l.64,36.36,1.28,32.99,14.52,3.02,33.03,6.99ZM424.29,85.75c-8.61-3.12-16.33-5.74-24.61-10.46,8.04,1.85,15.09,4.41,23.8,7.2l.06-41.66c0-1.33-2.09-3.75-3.53-3.84-12.37-.81-23.53-.81-35.72-.67-2.26.03-5.65.23-7.34,1.77-1.02,13.41,1.61,22.87.22,34.85,1.41,1.16,4.49,2.6,6.68,3.43,12.97,4.86,25.42,9.56,38.78,13.35,12.74,3.61,21.3,11.49,30.38,8.99-12.23-11.19-20.79-10.08-28.74-12.96ZM506.51,112.78l-.44-9.91-1.25-33.86-.6-33-43.27-.13.2,62.39,17.21,5.42,28.15,9.09ZM350.31,138.82c8.02,2.74,15.42,4.84,24.22,5.85l-9.76-30.69-14.84-45.67c-1-3.08-2.95-4.55-5.75-5.61l-29.02-10.9c7.88.25,14.35,3.76,21.61,5.69l11.66,3.1-7.13-23.22-57.38.39c-1.1,0-3.19,1.36-3.45,2.11l6.94,1.58-8.78,1.29c-2.54,7.25-4.67,14.59-6.81,22.05l-13.41,46.82c10.66,1.21,20.97,4.34,31.3,7.6l42.49,13.42,18.12,6.18ZM248.97,100.41c.08-4.53-.48-9.04-1.28-12.84l-36.71-.23c-.85-7.1-1.22-12.56-.95-18.82l47.97-.29c.29-10.44.43-19.75.02-30.39l-56.02.85-32.94,1.2c-.15,7.01-.06,12.75.1,19.1l.75,29.26c3.82,1.41,8.18,3.07,12.26,4.24l17.63,5.08c16.72,4.82,32.09,10.71,48.93,15.34l.23-12.5ZM125.16,84.22l15.75-.34.29-11.3-17.07.48.1-10.1,20.69-.05-.18-14.92c-12.53-.05-23.03.26-35.75,1.14l.43,29.96.46,26.07,33.56-.55c1.22-4.43,1.63-7.84,1.44-12.4l-18.64.2c-2.04-1.22-3.06-6.79-1.08-8.19ZM82.99,105.94l.25-18.88c1.82-1,5.26-1.24,7.57-.78l.33,19.5c5.73,0,10.41-.32,15.76-1.46l-.95-54.1c-1.17-1.07-16.9-1.58-15.46,1.04l.66,21.76-8.04-.15-.42-22.38c-6.16-.75-10.93-.79-16.63.24l.94,55.4,15.99-.19ZM53.44,106.33l-1.01-40.2,11-.58c.76-5.33.88-9.67.21-14.75l-36.54,1.71-.09,14.48,9.3.12.25,40.06c6.37.06,11.82-.08,16.88-.85ZM659.11,93.65c.09-5.72-.12-10.07-.83-14.49l-21.66,1.38-.53-11.98,25.61-1.59-.73-14.77-47.73,2.59,2.02,28.72,2.35,35.55c.14,2.16,2,4.49,4.16,4.35l17.65-1.12-2.33-27.55,22.02-1.1ZM610.22,107.83c.77-10.95-.58-21.92-1.71-32.77-1.2-11.48-9.1-18.25-20.36-18.63-7.2-.24-14.44-.71-21.52,2.48-6.6,2.98-11.44,9.08-11.9,16.83-.65,10.96.38,22.26,2.22,33.11,1.52,8.98,7.53,14.69,16.21,16.23,13.22,2.34,35.74,1.53,37.06-17.25ZM452.68,133.13l-14.71.33c-5.3.12-10.86.07-15.3-1.25.68-3.8,1.03-6.64.91-10.08l-.97-28.77c-7.17-3.78-15.03-5.6-22.64-8.2l-22.54-7.7,1.36,50.53c.17,6.26.06,12.27,1.87,17.94l67.5,21.25,10.99-.03-1.24-32.13c-.05-1.2-3.96-1.92-5.23-1.89ZM213.55,120.69l15.46-.23,11.16-.17c2.56-.04,5.25-1.22,6.55-3.3-12.49-6.17-24.63-9.33-37.31-13.54l-22.4-7.44-17.32-5.33.6,53.03c.04,3.35.42,6.45.67,9.57l1.24,15.39c4.7.82,9.31,1.13,13.77,1.03l28.31-.65-.74-48.36ZM556.21,166.31l-1.07-28.54-43.59-.4c-1.18-.01-3.78-.42-3.99-1.42-.17-.8-.38-2.81-.41-3.81l-.57-16.21-43.78-15.23c-.64,3.56-.55,6.73-.41,10.09l1.1,27.2.77,25.87c.03,1,1.78,3.6,2.76,3.58l89.18-1.14ZM335.79,164.9l44.87.39c-.52-5.91-2.53-12.38-4.96-17.67-11.6-2.28-21.63-5.16-32.74-8.59l-71.65-22.16-13.33-3.56c-2.97,7.4-5.1,15.45-7.57,23.26l-9.82,30.95,29.62-1.08,18.3-.93,4.13-19.91,33.79-1.28c4.57,7.84,3.16,20.52,9.37,20.57ZM973.71,119.4c-2.05-3.16-7.69-5.8-11.8-1.9,2.51,2.89,7.74,4.62,11.8,1.9ZM762.63,120.47l-4.72-1.6c-2.44-.83-4.41-1.07-6.74,1.23l8.5,3.45,2.96-3.09ZM674.2,143.78c-1.98-.98-4.63-2.04-6.14-2.22-.34,2.44.46,4.94,1.7,4.98l4.87.13c.37,0,1.61-1.16,1.91-1.37s-.58-.66-.91-.81l-1.43-.71ZM994.09,148.49c-4.55-1.91-5.93-1.09-8.41,1.79l4.22,2.63,4.18-4.43ZM433.67,166.71c-13.8-6.69-27.89-9.41-41.99-14.5l-10.7-3.86,4.52,17.23c8.89.74,18.4.96,27.64,1.02l20.53.12ZM656.61,158.23l-12.38-7.49c-3.23-1.96-6.9-1.34-10.22.72l8.47,5.16c4.08,2.49,8.77,5.95,14.13,1.61ZM1008.92,168.65c.98-6.96-16.51-15.98-19.82-11.94,4.67,6.49,11.3,11.56,19.82,11.94ZM697.63,172.39c-5.86-7.99-14.82-9.63-23.42-11.5l-5.05,2.5c14.3,8.66,12.44,8.13,28.48,9ZM1001.49,189.8l2.12-5.23c-3.72-4.61-8.34-8.12-13.73-10.58-6.78-3.09-12.72-7.98-18.78-12.05l-5.24,1.79c2.97,6.89,2.65,7.13,9.26,12.97l12.87,11.34c2.65,2.33,10.26,1.95,13.49,1.76ZM723.57,181.17l-6.15-2.7c-4.56-2-9.29-4.93-14.81-2.22,3.36,3.49,16.7,6.53,20.96,4.92ZM1041.74,183.83c-7.42-4.01-13.33-6.39-19.97-8.76l-8.41,1.31c2.44,4.85,6.12,10.39,11.6,11.23s11.65-.37,16.78-3.79Z"/>
  <path d="M942.35,193.07l-8.95,3.97,1.65,2.28c-8.63-.17-15.8-1.15-23.81-2.48s-15.04-1.83-22.91-2.61c-1.76-.17-4.76-1.28-6.71-1.57-7.95-1.2-14.78-3.64-22.04-7.07-15.11-7.12-16.85-10.48-24.2-24.77l2.54-.42c.26-.04,1.33.02,1.13-.17l-1.92-1.85,5.35-.95c-5.8-2.55-8.27-4.84-8.27-10.16,0-4.04-.1-8.22.31-12.63,2.72-.61,6.07-.6,8.6-.09l29.32,5.95c4.29.87,8.37,1.77,12.33,2.86l.73,18.61,13.56,2.01c4.33.64,10.3-.21,13.42-3.46,3.63-3.78,3.36-11.28-.07-15.05-6.19-6.81-12.38-7.82-23.05-14.96-4.57-3.06-9.73-5.47-14.59-8.27l-15.69-9.04c-14.86-8.56-26.26-22.38-26.15-40.15.17-27.96,24.69-41.84,49.54-43.58,14.44-1.01,28.9.15,42.91,4,23.45,6.45,30.58,26.9,31.64,49.08l-21.08.63-20.67.39h-3.44c-3.74.02,1.53-19.23-12.79-23.59-6.83-2.08-14.94.62-16.64,8.22-1.41,6.31,2.64,12.15,7.98,15.4l37.87,23.1c5.8,3.54,11.56,7.23,16.68,11.27,11.59,9.14,17.07,23.58,17.02,37.98-1.25,1.06-4.15.7-5.69-.16-10.63-5.96-21.39-9.94-32.46-14.78-6.6-2.89-12.8-5.97-19.76-7.91-4.1-1.15-7.33-4.06-12.36-3.18,5.82,3.14,11.29,6.36,17.29,8.83l16.47,6.79,32.78,14.26c1.75.76,4.65,1.74,4.44,3.53l-1,8.54c-8.67,7.54-.38,3.98-10.95,14.92-2.42,2.5-4.93,4.77-8.37,6.3Z"/>
  <path d="M695.29,110.02l-.18-3.54c-.05-.9,2.98-.61,3.9-.41l16.71,3.59,18.17,4.47.87,3.18c2.84-.65,5.19-1.25,6.56-.53,1.97,1.04,4.29,3.9,3.45,5.82-1.28,2.91-4.95,1.79-7.11.84l-2.57-1.12c-.63-.27-1.39.59-2.21,1.39l8.87,2.89,4.19,17.5c3.54,14.78,21.75,12.92,25.21,10.91,4.39-2.55,4.12-9.48,3.75-13.97-.74-9.03-1.27-17.19-1.56-26.13l-1.78-55.27-1.29-23.51c.43-1.1,2.42-3.22,3.56-3.25,16.56-.36,31.54-.39,48.91.96l2.06,66.74.06,18.24-.26,16.75c-.14,8.78.51,17.08-1.33,25.9-1.96,9.42-17.69,19.47-25.5,21.07-12.03,2.46-24.11,1.7-36.18,1.12-5.73-.27-11.41-2.23-16.72-2.96-11.55-1.58-20.6-4.88-29.95-11.38-11.06-7.69-17.7-17.77-18.86-31.7l-1.07-12.82c-.17-2.08-2.34-9.54-6.92-10.62l5.86,1.51c.74-.88,1.44-4,1.35-5.66ZM710.3,116.79l-12.14-4.01c.08.86,1.81,2.36,3.08,2.8l15.5,5.47c-1.45-1.16-4.68-3.68-6.44-4.27ZM820.69,131.36c-12.79-5.22-13.35-1.53-25.93-7.27-14.88-6.8-23.61-1.67-19.31-.18,4.56,1.57,7.79.9,10.98,1.71l21.54,5.44c4.2,1.06,8.22,3.96,12.72.31Z"/>
  <path d="M350.31,138.82l-18.12-6.18-42.49-13.42c-10.33-3.26-20.64-6.39-31.3-7.6l13.41-46.82c2.14-7.46,4.27-14.8,6.81-22.05l8.78-1.29-6.94-1.58c.26-.75,2.35-2.1,3.45-2.11l57.38-.39,7.13,23.22-11.66-3.1c-7.26-1.93-13.73-5.44-21.61-5.69l29.02,10.9c2.8,1.05,4.75,2.52,5.75,5.61l14.84,45.67,9.76,30.69c-8.8-1.01-16.2-3.11-24.22-5.85ZM319.02,109.31l-11.04-39.88-6.4,40.57,17.44-.69Z"/>
  <path d="M248.97,100.41l-.23,12.5c-16.84-4.62-32.21-10.51-48.93-15.34l-17.63-5.08c-4.08-1.18-8.44-2.84-12.26-4.24l-.75-29.26c-.16-6.35-.25-12.09-.1-19.1l32.94-1.2,56.02-.85c.41,10.64.27,19.96-.02,30.39l-47.97.29c-.28,6.26.09,11.72.95,18.82l36.71.23c.8,3.8,1.37,8.32,1.28,12.84Z"/>
  <path d="M452.68,133.13c1.28-.03,5.19.69,5.23,1.89l1.24,32.13-10.99.03-67.5-21.25c-1.81-5.67-1.7-11.67-1.87-17.94l-1.36-50.53,22.54,7.7c7.61,2.6,15.47,4.42,22.64,8.2l.97,28.77c.12,3.45-.23,6.29-.91,10.08,4.44,1.32,10,1.37,15.3,1.25l14.71-.33Z"/>
  <path d="M556.21,166.31l-89.18,1.14c-.98.01-2.73-2.58-2.76-3.58l-.77-25.87-1.1-27.2c-.14-3.36-.23-6.53.41-10.09l43.78,15.23.57,16.21c.04,1,.25,3.01.41,3.81.21.99,2.81,1.41,3.99,1.42l43.59.4,1.07,28.54Z"/>
  <path d="M335.79,164.9c-6.2-.05-4.8-12.73-9.37-20.57l-33.79,1.28-4.13,19.91-18.3.93-29.62,1.08,9.82-30.95c2.48-7.81,4.61-15.86,7.57-23.26l13.33,3.56,71.65,22.16c11.11,3.44,21.14,6.31,32.74,8.59,2.43,5.28,4.45,11.76,4.96,17.67l-44.87-.39Z"/>
  <path d="M742.41,112.94l-33.03-6.99-14.52-3.02-1.28-32.99-.64-36.36c10.85-.67,20.4-.48,30.74-.42l20.18.12v22.76c-.02,16.71-.4,32.69.4,49.44.1,2-1,5.26-1.84,7.46Z"/>
  <path d="M213.55,120.69l.74,48.36-28.31.65c-4.46.1-9.07-.21-13.77-1.03l-1.24-15.39c-.25-3.12-.64-6.22-.67-9.57l-.6-53.03,17.32,5.33,22.4,7.44c12.69,4.22,24.82,7.38,37.31,13.54-1.31,2.08-4,3.27-6.55,3.3l-11.16.17-15.46.23Z"/>
  <polygon points="506.51 112.78 478.36 103.69 461.15 98.27 460.95 35.88 504.22 36.01 504.82 69.01 506.07 102.87 506.51 112.78"/>
  <path d="M610.22,107.83c-1.33,18.78-23.85,19.59-37.06,17.25-8.67-1.53-14.69-7.25-16.21-16.23-1.83-10.85-2.86-22.15-2.22-33.11.46-7.74,5.29-13.85,11.9-16.83,7.08-3.19,14.32-2.72,21.52-2.48,11.26.37,19.16,7.14,20.36,18.63,1.14,10.85,2.49,21.82,1.71,32.77ZM586.01,74.06c-.39-2.09-2.61-4.21-4.43-4.31-1.37-.07-4.53,1.69-4.47,3.07l1.16,26.16c.2,4.51,1.15,10.41,3.44,14.08.62,1,3.89.67,4.63-.18,4.35-4.99,1.2-30.56-.33-38.83Z"/>
  <path d="M424.29,85.75c7.94,2.88,16.51,1.77,28.74,12.96-9.08,2.5-17.64-5.38-30.38-8.99-13.35-3.78-25.81-8.49-38.78-13.35-2.19-.82-5.27-2.27-6.68-3.43,1.39-11.98-1.23-21.44-.22-34.85,1.69-1.54,5.08-1.75,7.34-1.77,12.19-.15,23.35-.14,35.72.67,1.44.09,3.53,2.51,3.53,3.84l-.06,41.66c-8.71-2.79-15.77-5.35-23.8-7.2,8.28,4.72,15.99,7.34,24.61,10.46Z"/>
  <path d="M659.11,93.65l-22.02,1.1,2.33,27.55-17.65,1.12c-2.15.14-4.02-2.2-4.16-4.35l-2.35-35.55-2.02-28.72,47.73-2.59.73,14.77-25.61,1.59.53,11.98,21.66-1.38c.71,4.42.92,8.76.83,14.49Z"/>
  <path d="M82.99,105.94l-15.99.19-.94-55.4c5.69-1.03,10.46-.99,16.63-.24l.42,22.38,8.04.15-.66-21.76c-1.44-2.62,14.29-2.11,15.46-1.04l.95,54.1c-5.34,1.13-10.03,1.46-15.76,1.46l-.33-19.5c-2.31-.46-5.76-.22-7.57.78l-.25,18.88Z"/>
  <path d="M125.16,84.22c-1.98,1.4-.96,6.97,1.08,8.19l18.64-.2c.18,4.56-.22,7.96-1.44,12.4l-33.56.55-.46-26.07-.43-29.96c12.72-.88,23.22-1.19,35.75-1.14l.18,14.92-20.69.05-.1,10.1,17.07-.48-.29,11.3-15.75.34Z"/>
  <path d="M53.44,106.33c-5.06.77-10.51.9-16.88.85l-.25-40.06-9.3-.12.09-14.48,36.54-1.71c.67,5.08.55,9.43-.21,14.75l-11,.58,1.01,40.2Z"/>
  <path d="M433.67,166.71l-20.53-.12c-9.24-.06-18.75-.28-27.64-1.02l-4.52-17.23,10.7,3.86c14.1,5.09,28.19,7.81,41.99,14.5Z"/>
  <path d="M1001.49,189.8c-3.23.19-10.85.58-13.49-1.76l-12.87-11.34c-6.62-5.83-6.3-6.07-9.26-12.97l5.24-1.79c6.06,4.06,12,8.96,18.78,12.05,5.4,2.46,10.01,5.97,13.73,10.58l-2.12,5.23Z"/>
  <path d="M1041.74,183.83c-5.13,3.42-11.1,4.66-16.78,3.79s-9.17-6.39-11.6-11.23l8.41-1.31c6.64,2.37,12.55,4.75,19.97,8.76Z"/>
  <path d="M697.63,172.39c-16.04-.87-14.17-.34-28.48-9l5.05-2.5c8.61,1.88,17.56,3.51,23.42,11.5Z"/>
  <path d="M1008.92,168.65c-8.52-.38-15.15-5.45-19.82-11.94,3.3-4.03,20.8,4.98,19.82,11.94Z"/>
  <path d="M656.61,158.23c-5.36,4.33-10.05.87-14.13-1.61l-8.47-5.16c3.33-2.06,6.99-2.67,10.22-.72l12.38,7.49Z"/>
  <path d="M723.57,181.17c-4.26,1.61-17.6-1.42-20.96-4.92,5.52-2.71,10.24.21,14.81,2.22l6.15,2.7Z"/>
  <path d="M973.71,119.4c-4.07,2.72-9.29.99-11.8-1.9,4.11-3.9,9.76-1.26,11.8,1.9Z"/>
  <path d="M762.63,120.47l-2.96,3.09-8.5-3.45c2.33-2.3,4.29-2.06,6.74-1.23l4.72,1.6Z"/>
  <path d="M674.2,143.78l1.43.71c.32.16,1.2.6.91.81s-1.54,1.38-1.91,1.37l-4.87-.13c-1.24-.03-2.04-2.54-1.7-4.98,1.51.17,4.16,1.24,6.14,2.22Z"/>
  <path d="M994.09,148.49l-4.18,4.43-4.22-2.63c2.48-2.88,3.85-3.7,8.41-1.79Z"/>
  <path class="st0" d="M820.69,131.36c-4.5,3.65-8.52.75-12.72-.31l-21.54-5.44c-3.19-.8-6.41-.13-10.98-1.71-4.3-1.49,4.43-6.61,19.31.18,12.57,5.75,13.13,2.06,25.93,7.27Z"/>
  <path class="st0" d="M710.3,116.79c1.76.58,4.99,3.11,6.44,4.27l-15.5-5.47c-1.27-.45-3-1.94-3.08-2.8l12.14,4.01Z"/>
  <polygon class="st0" points="319.02 109.31 301.58 109.99 307.98 69.42 319.02 109.31"/>
  <path class="st0" d="M586.01,74.06c1.52,8.27,4.68,33.84.33,38.83-.74.84-4,1.18-4.63.18-2.29-3.68-3.24-9.58-3.44-14.08l-1.16-26.16c-.06-1.38,3.1-3.14,4.47-3.07,1.82.1,4.04,2.21,4.43,4.31Z"/>
</svg>